<?xml version="1.0" encoding="UTF-8" standalone="no"?>
<!-- Generator: Adobe Illustrator 15.0.2, SVG Export Plug-In . SVG Version: 6.00 Build 0)  -->

<svg
   xmlns:dc="http://purl.org/dc/elements/1.1/"
   xmlns:cc="http://creativecommons.org/ns#"
   xmlns:rdf="http://www.w3.org/1999/02/22-rdf-syntax-ns#"
   xmlns:svg="http://www.w3.org/2000/svg"
   xmlns="http://www.w3.org/2000/svg"
   xmlns:xlink="http://www.w3.org/1999/xlink"
   xmlns:sodipodi="http://sodipodi.sourceforge.net/DTD/sodipodi-0.dtd"
   xmlns:inkscape="http://www.inkscape.org/namespaces/inkscape"
   version="1.1"
   id="Ebene_1"
   x="0px"
   y="0px"
   width="32px"
   height="32px"
   viewBox="0 0 32 32"
   enable-background="new 0 0 32 32"
   xml:space="preserve"
   inkscape:version="0.48.2 r9819"
   sodipodi:docname="nme.svg"><metadata
   id="metadata3074"><rdf:RDF><cc:Work
       rdf:about=""><dc:format>image/svg+xml</dc:format><dc:type
         rdf:resource="http://purl.org/dc/dcmitype/StillImage" /></cc:Work></rdf:RDF></metadata><defs
   id="defs3072"><linearGradient
     id="linearGradient5432"><stop
       style="stop-color:#8ade34;stop-opacity:1;"
       offset="0"
       id="stop5434" /><stop
       style="stop-color:#eeff70;stop-opacity:1;"
       offset="1"
       id="stop5436" /></linearGradient><linearGradient
     id="linearGradient5424"><stop
       style="stop-color:#c7ff5d;stop-opacity:1;"
       offset="0"
       id="stop5426" /><stop
       style="stop-color:#7d8f39;stop-opacity:1;"
       offset="1"
       id="stop5428" /></linearGradient><linearGradient
     id="linearGradient3865"><stop
       style="stop-color:#9c72a4;stop-opacity:1;"
       offset="0"
       id="stop3867" /><stop
       style="stop-color:#4d2b46;stop-opacity:1;"
       offset="1"
       id="stop3869" /></linearGradient><linearGradient
     id="linearGradient3853"><stop
       style="stop-color:#402748;stop-opacity:1;"
       offset="0"
       id="stop3855" /><stop
       style="stop-color:#8e3177;stop-opacity:1"
       offset="1"
       id="stop3857" /></linearGradient><linearGradient
     inkscape:collect="always"
     xlink:href="#linearGradient3853"
     id="linearGradient3859"
     x1="15.18644"
     y1="4.6779666"
     x2="15.254236"
     y2="46.237289"
     gradientUnits="userSpaceOnUse" /><linearGradient
     inkscape:collect="always"
     xlink:href="#linearGradient3865"
     id="linearGradient3871"
     x1="16.218649"
     y1="1.0097768"
     x2="16.896193"
     y2="29.136179"
     gradientUnits="userSpaceOnUse" /><linearGradient
     inkscape:collect="always"
     xlink:href="#linearGradient5424"
     id="linearGradient5430"
     x1="20.890099"
     y1="17.865168"
     x2="20.107422"
     y2="-21.411388"
     gradientUnits="userSpaceOnUse" /><linearGradient
     inkscape:collect="always"
     xlink:href="#linearGradient5432"
     id="linearGradient5440"
     x1="31.583334"
     y1="19.190878"
     x2="28.258539"
     y2="-21.709515"
     gradientUnits="userSpaceOnUse" /></defs><sodipodi:namedview
   pagecolor="#ffffff"
   bordercolor="#666666"
   borderopacity="1"
   objecttolerance="10"
   gridtolerance="10"
   guidetolerance="10"
   inkscape:pageopacity="0"
   inkscape:pageshadow="2"
   inkscape:window-width="1366"
   inkscape:window-height="746"
   id="namedview3070"
   showgrid="false"
   inkscape:zoom="8"
   inkscape:cx="38.120727"
   inkscape:cy="2.5593075"
   inkscape:window-x="1272"
   inkscape:window-y="78"
   inkscape:window-maximized="1"
   inkscape:current-layer="layer4"><inkscape:grid
     type="xygrid"
     id="grid5390" /></sodipodi:namedview>
<g
   transform="matrix(0.125,0,0,0.125,-9.4915254,2.440678)"
   id="g3050">
	
	
	
	
	
	
	
	
	
<rect
   style="fill:url(#linearGradient3859);fill-opacity:1;stroke:none"
   id="rect3076"
   width="32.135593"
   height="32.067795"
   x="-0.06779661"
   y="0.067796595"
   transform="matrix(8,0,0,8,75.932203,-19.525424)"
   ry="2.9749999" /><rect
   style="fill:url(#linearGradient3871);fill-opacity:1;stroke:none"
   id="rect3863"
   width="28.745762"
   height="26.983051"
   x="1.7627119"
   y="3.5254238"
   transform="matrix(8.3490568,0,0,8.5979898,69.215221,-33.836981)"
   ry="2.6665001" /><a
   id="a3877" /></g><g
   inkscape:groupmode="layer"
   id="layer3"
   inkscape:label="AlienBG"
   style="display:none"><path
     style="fill:#5cff78;fill-opacity:1;stroke:none"
     d="m 6.1871843,17.857864 c 2.9168155,8.750447 -5.56846587,14.407301 2.7400388,9.015612 8.3085049,-5.391689 -3.5355339,3.800699 0.7954952,2.209709 4.3310287,-1.590991 2.1213207,-6.45235 4.1542527,-6.717515 2.032932,-0.265165 1.59099,-2.65165 3.889087,-0.353553 2.298097,2.298097 -1.325825,-15.5563495 -3.800699,-14.7608544 -2.474874,0.7954951 -2.740039,4.5078054 -4.5961941,4.2426404 -1.8561553,-0.265165 -3.2703689,-2.9168152 -5.3033009,0 -2.032932,2.916816 2.1213203,6.363961 2.1213203,6.363961 z"
     id="path3903"
     inkscape:connector-curvature="0" /><path
     transform="matrix(-1,0,0,1,28.768116,0.0515751)"
     style="fill:#5cff78;fill-opacity:1;stroke:none"
     d="m 6.1871843,17.857864 c 2.9168155,8.750447 -5.56846587,14.407301 2.7400388,9.015612 8.3085049,-5.391689 -3.5355339,3.800699 0.7954952,2.209709 4.3310287,-1.590991 2.1213207,-6.45235 4.1542527,-6.717515 2.032932,-0.265165 1.59099,-2.65165 3.889087,-0.353553 2.298097,2.298097 -1.325825,-15.5563495 -3.800699,-14.7608544 -2.474874,0.7954951 -2.740039,4.5078054 -4.5961941,4.2426404 -1.8561553,-0.265165 -3.2703689,-2.9168152 -5.3033009,0 -2.032932,2.916816 2.1213203,6.363961 2.1213203,6.363961 z"
     id="path3903-7"
     inkscape:connector-curvature="0" /></g><g
   inkscape:groupmode="layer"
   id="layer4"
   inkscape:label="K"><text
     xml:space="preserve"
     style="font-size:40px;font-style:normal;font-weight:normal;line-height:125%;letter-spacing:0px;word-spacing:0px;fill:url(#linearGradient5440);fill-opacity:1;stroke:url(#linearGradient5430);font-family:Sans;stroke-opacity:1;stroke-width:0.51449811999999995;stroke-miterlimit:4;stroke-dasharray:none;stroke-linejoin:round;stroke-linecap:round"
     x="7"
     y="13"
     id="text5404"
     sodipodi:linespacing="125%"
     transform="matrix(0.62033898,0,0,0.61582537,0.65762714,15.74427)"><tspan
       sodipodi:role="line"
       id="tspan5406"
       x="7"
       y="13"
       style="stroke:url(#linearGradient5430);fill-opacity:1;fill:url(#linearGradient5440)">A!</tspan></text>
</g><g
   inkscape:groupmode="layer"
   id="layer2"
   inkscape:label="Alien"
   style="display:none"><path
     style="fill:#fff435;fill-opacity:1;stroke:#b5b622;stroke-width:0.2;stroke-linecap:butt;stroke-linejoin:miter;stroke-miterlimit:4;stroke-opacity:1;stroke-dasharray:none"
     d="M 5.7452426,6.5441558 C 2.2097087,15.824932 7.0710678,17.327534 7.0710678,17.327534 l 1.8561553,-2.740039 c 0,0 -5.0381358,-2.563262 -3.1819805,-8.0433392 z"
     id="path3882"
     inkscape:connector-curvature="0"
     transform="translate(0.35355339,-2.032932)" /><path
     transform="matrix(-1,0,0,1,30.998775,-2.0329319)"
     style="fill:#fff435;fill-opacity:1;stroke:#b5b622;stroke-width:0.2;stroke-linecap:butt;stroke-linejoin:miter;stroke-miterlimit:4;stroke-opacity:1;stroke-dasharray:none"
     d="M 5.7452426,6.5441558 C 2.2097087,15.824932 7.0710678,17.327534 7.0710678,17.327534 l 1.8561553,-2.740039 c 0,0 -5.0381358,-2.563262 -3.1819805,-8.0433392 z"
     id="path3882-1"
     inkscape:connector-curvature="0" /></g>
</svg>